<svg width="120" height="90" viewBox="0 0 274 301" fill="none" xmlns="http://www.w3.org/2000/svg">
<g clip-path="url(#clip0_1_18)">
<path d="M122.393 98.6216C117.302 86.4999 112.708 64.1333 95.3551 64.1333C78.0027 64.1333 65.7546 80.6147 97.9078 111.81L122.393 98.6216Z" fill="#243F55"/>
<path d="M267.481 193.455C267.481 168.431 249.891 148.144 228.192 148.144C207.056 148.144 158.502 131.471 132.946 101.999C107.391 72.5267 93.3356 105.073 76.7251 105.073C60.114 105.073 46.0593 90.2713 24.3366 90.2713C2.6145 90.2713 3.2536 126.44 3.2536 155.175C3.2536 183.911 3.2536 193.455 3.2536 193.455H267.481Z" fill="#454F58"/>
<path d="M132.946 101.999C107.391 72.5267 93.3357 105.073 76.7251 105.073C60.114 105.073 46.0593 90.2713 24.3366 90.2713C7.42457 90.2713 4.06761 112.196 3.41016 135.467C19.6623 138.125 55.2605 154.28 67.6903 193.455H144.138C135.157 151.665 154.606 142.157 170.942 150.603C184.064 157.387 195.843 149.114 196.875 141.78C174.936 134.405 149.257 120.81 132.946 101.999Z" fill="#000304"/>
<path d="M101.366 149.952H66.5063C63.9731 149.952 61.9194 147.584 61.9194 144.662C61.9194 141.741 63.9731 139.373 66.5063 139.373H101.366C103.899 139.373 105.953 141.741 105.953 144.662C105.953 147.584 103.899 149.952 101.366 149.952Z" fill="#0071CE"/>
<path d="M110.702 166.065H75.842C73.3089 166.065 71.2552 163.696 71.2552 160.775C71.2552 157.853 73.3089 155.485 75.842 155.485H110.702C113.235 155.485 115.289 157.853 115.289 160.775C115.289 163.696 113.235 166.065 110.702 166.065Z" fill="#0071CE"/>
<path d="M76.7251 105.073C60.114 105.073 46.0593 90.2713 24.3366 90.2713C16.6582 90.2713 11.7809 94.7995 8.67525 101.912C27.0428 106.086 48.0677 127.045 75.2543 125.687C90.2251 124.939 110.505 101.712 132.629 101.643C107.275 72.8067 93.2665 105.073 76.7251 105.073Z" fill="#00B3E3"/>
<path d="M262.74 189.436H240.845C200.391 189.436 78.2767 177.5 41.2878 177.5H8.75782C3.59731 177.5 -3.8147e-06 182.371 -3.8147e-06 188.323V211.045C-3.8147e-06 216.996 3.59731 221.867 8.75782 221.867H262.739C268.932 221.867 273.999 216.022 273.999 208.88V202.422C274 195.279 268.932 189.436 262.74 189.436Z" fill="black"/>
<path d="M233.697 189.336C215.768 188.892 187.979 187.004 158.64 184.86C160.164 190.412 161.052 196.134 159.73 199.684C157.922 204.535 149.796 214.207 142.909 221.867H230.241C232.94 212.281 234.968 200.614 233.697 189.336Z" fill="#00213D"/>
<path d="M60.6547 204.973H29.6677C27.1346 204.973 25.0809 202.605 25.0809 199.683C25.0809 196.762 27.1346 194.394 29.6677 194.394H60.6547C63.1878 194.394 65.2415 196.762 65.2415 199.683C65.2415 202.605 63.1878 204.973 60.6547 204.973Z" fill="#00B3E3"/>
<path d="M128.423 121.176C130.956 121.176 133.01 118.807 133.01 115.886C133.01 112.964 130.956 110.596 128.423 110.596C125.89 110.596 123.836 112.964 123.836 115.886C123.836 118.807 125.89 121.176 128.423 121.176Z" fill="#0291EC"/>
<path d="M142.298 132.264C144.831 132.264 146.885 129.896 146.885 126.974C146.885 124.053 144.831 121.684 142.298 121.684C139.765 121.684 137.711 124.053 137.711 126.974C137.711 129.896 139.765 132.264 142.298 132.264Z" fill="#0291EC"/>
<path d="M157.692 141.897C160.225 141.897 162.279 139.528 162.279 136.606C162.279 133.684 160.225 131.316 157.692 131.316C155.158 131.316 153.104 133.684 153.104 136.606C153.104 139.528 155.158 141.897 157.692 141.897Z" fill="#0291EC"/>
<path d="M46.5938 249.312C46.0417 248.812 45.8958 248.375 46.1562 248L46.9688 246.828C47.25 246.422 47.7031 246.453 48.3281 246.922C49.151 247.536 50.0052 248.042 50.8906 248.438C51.7865 248.833 52.8698 249.031 54.1406 249.031C55.0781 249.031 55.8698 248.891 56.5156 248.609C57.1615 248.328 57.6771 247.927 58.0625 247.406C58.4583 246.875 58.6562 246.234 58.6562 245.484C58.6562 244.943 58.5729 244.443 58.4062 243.984C58.25 243.516 57.9948 243.125 57.6406 242.812C57.2865 242.5 56.9167 242.255 56.5312 242.078C55.8958 241.786 54.9427 241.448 53.6719 241.062C52.4115 240.677 51.3073 240.26 50.3594 239.812C49.4219 239.365 48.6719 238.823 48.1094 238.188C47.5573 237.552 47.1875 236.901 47 236.234C46.8229 235.557 46.7344 234.786 46.7344 233.922C46.7344 232.599 47.1198 231.458 47.8906 230.5C48.6615 229.542 49.6042 228.906 50.7188 228.594C51.8438 228.281 52.9844 228.125 54.1406 228.125C55.4635 228.125 56.6146 228.297 57.5938 228.641C58.5729 228.984 59.4479 229.432 60.2188 229.984C60.7604 230.37 60.8854 230.776 60.5938 231.203L59.7969 232.344C59.5573 232.688 59.0885 232.615 58.3906 232.125C57.8594 231.75 57.2083 231.401 56.4375 231.078C55.6771 230.745 54.9219 230.578 54.1719 230.578C53.2135 230.578 52.4167 230.693 51.7812 230.922C51.1458 231.141 50.6458 231.516 50.2812 232.047C49.9167 232.578 49.7344 233.193 49.7344 233.891C49.7344 234.328 49.776 234.734 49.8594 235.109C49.9427 235.474 50.1562 235.849 50.5 236.234C50.8438 236.62 51.2604 236.917 51.75 237.125C52.4062 237.406 53.4219 237.74 54.7969 238.125C56.1823 238.5 57.3906 238.964 58.4219 239.516C59.3802 240.026 60.0677 240.562 60.4844 241.125C60.9115 241.677 61.2396 242.281 61.4688 242.938C61.7083 243.583 61.8281 244.312 61.8281 245.125C61.8281 246.604 61.4479 247.839 60.6875 248.828C59.9271 249.818 59.026 250.505 57.9844 250.891C56.9427 251.276 55.6354 251.469 54.0625 251.469C52.1771 251.469 50.6146 251.25 49.375 250.812C48.1354 250.375 47.2083 249.875 46.5938 249.312ZM66.0469 251C65.5781 251 65.3438 250.766 65.3438 250.297V235.297C65.3438 234.828 65.5781 234.594 66.0469 234.594H67.3594C67.8281 234.594 68.0625 234.828 68.0625 235.297V236.547H68.125C68.8021 235.797 69.5312 235.24 70.3125 234.875C71.0938 234.51 72.0677 234.328 73.2344 234.328C75.1302 234.328 76.4896 234.865 77.3125 235.938C78.1458 237 78.5625 238.458 78.5625 240.312V250.297C78.5625 250.766 78.3281 251 77.8594 251H76.5156C76.0469 251 75.8125 250.766 75.8125 250.297V241.062C75.8125 239.021 75.474 237.729 74.7969 237.188C74.1198 236.635 73.2604 236.359 72.2188 236.359C70.8646 236.359 69.8385 236.766 69.1406 237.578C68.4427 238.38 68.0938 239.76 68.0938 241.719V250.297C68.0938 250.766 67.8594 251 67.3906 251H66.0469ZM82.0781 246.625C82.0781 244.771 82.9427 243.411 84.6719 242.547C86.4115 241.682 89.0052 241.177 92.4531 241.031V239.969C92.4531 238.99 92.2292 238.146 91.7812 237.438C91.3438 236.719 90.4688 236.359 89.1562 236.359C88.3229 236.359 87.6562 236.443 87.1562 236.609C86.6562 236.766 86.1979 236.979 85.7812 237.25C85.375 237.51 84.9844 237.849 84.6094 238.266C84.3281 238.578 84.0625 238.594 83.8125 238.312L83 237.375C82.7708 237.115 82.849 236.802 83.2344 236.438C83.7865 235.917 84.3229 235.526 84.8438 235.266C85.3646 235.005 86.0104 234.786 86.7812 234.609C87.5625 234.422 88.3542 234.328 89.1562 234.328C91.3333 234.328 92.8854 234.891 93.8125 236.016C94.7396 237.13 95.2031 238.661 95.2031 240.609V250.297C95.2031 250.766 94.9688 251 94.5 251H93.0938C92.6875 251 92.4844 250.766 92.4844 250.297V249.531H92.4531C91.6302 250.177 90.8229 250.63 90.0312 250.891C89.25 251.141 88.375 251.266 87.4062 251.266C85.6979 251.266 84.3802 250.859 83.4531 250.047C82.5365 249.224 82.0781 248.083 82.0781 246.625ZM84.9219 246.688C84.9219 247.333 85.0573 247.854 85.3281 248.25C85.599 248.635 85.974 248.885 86.4531 249C86.9323 249.104 87.4323 249.156 87.9531 249.156C88.7552 249.156 89.5156 249.078 90.2344 248.922C90.9531 248.766 91.6927 248.354 92.4531 247.688V243.078C90.349 243.234 88.849 243.427 87.9531 243.656C87.0573 243.875 86.3281 244.26 85.7656 244.812C85.2031 245.354 84.9219 245.979 84.9219 246.688ZM100.359 251C99.8906 251 99.6562 250.766 99.6562 250.297V228.641C99.6562 228.172 99.8906 227.938 100.359 227.938H101.703C102.172 227.938 102.406 228.172 102.406 228.641V241.641C102.406 241.953 102.396 242.266 102.375 242.578H102.406L108.734 235C108.964 234.729 109.24 234.594 109.562 234.594H110.984C111.776 234.594 111.911 234.901 111.391 235.516L106.484 241.359L112.094 250.078C112.49 250.693 112.354 251 111.688 251H110.156C109.812 251 109.516 250.807 109.266 250.422L104.766 243.406L102.406 246.219V250.297C102.406 250.766 102.172 251 101.703 251H100.359ZM114.453 242.797C114.453 240.214 115.099 238.156 116.391 236.625C117.682 235.094 119.531 234.328 121.938 234.328C123.938 234.328 125.594 235.031 126.906 236.438C128.229 237.833 128.891 240.068 128.891 243.141C128.891 243.609 128.677 243.844 128.25 243.844H117.359C117.536 245.854 118.078 247.255 118.984 248.047C119.891 248.828 120.917 249.219 122.062 249.219C123.271 249.219 124.198 249.016 124.844 248.609C125.49 248.203 125.964 247.802 126.266 247.406C126.599 246.969 126.922 246.885 127.234 247.156L128.156 247.953C128.396 248.161 128.396 248.448 128.156 248.812C127.958 249.115 127.391 249.599 126.453 250.266C125.526 250.932 124.062 251.266 122.062 251.266C119.458 251.266 117.536 250.5 116.297 248.969C115.068 247.438 114.453 245.38 114.453 242.797ZM117.297 241.812H126.125C126.083 240.354 125.708 239.078 125 237.984C124.292 236.88 123.25 236.328 121.875 236.328C120.667 236.328 119.641 236.734 118.797 237.547C117.953 238.349 117.453 239.771 117.297 241.812ZM142.812 251C142.24 251 141.953 250.766 141.953 250.297V249.547C141.953 249.047 142.109 248.583 142.422 248.156L154.703 231.188V231.125C154.286 231.146 153.87 231.156 153.453 231.156H143.312C142.74 231.156 142.453 230.922 142.453 230.453V229.297C142.453 228.828 142.74 228.594 143.312 228.594H157.719C158.292 228.594 158.578 228.828 158.578 229.297V229.781C158.578 230.125 158.474 230.443 158.266 230.734L145.828 248.406V248.469C146.109 248.448 146.526 248.438 147.078 248.438H158.062C158.635 248.438 158.922 248.672 158.922 249.141V250.297C158.922 250.766 158.635 251 158.062 251H142.812ZM161.266 242.797C161.266 240.349 161.911 238.328 163.203 236.734C164.505 235.13 166.406 234.328 168.906 234.328C171.406 234.328 173.302 235.13 174.594 236.734C175.896 238.328 176.547 240.349 176.547 242.797C176.547 245.245 175.896 247.271 174.594 248.875C173.302 250.469 171.406 251.266 168.906 251.266C166.406 251.266 164.505 250.469 163.203 248.875C161.911 247.271 161.266 245.245 161.266 242.797ZM164.172 242.797C164.172 244.984 164.604 246.604 165.469 247.656C166.333 248.708 167.479 249.234 168.906 249.234C170.333 249.234 171.479 248.708 172.344 247.656C173.208 246.604 173.641 244.984 173.641 242.797C173.641 240.609 173.208 238.99 172.344 237.938C171.479 236.885 170.333 236.359 168.906 236.359C167.479 236.359 166.333 236.885 165.469 237.938C164.604 238.99 164.172 240.609 164.172 242.797ZM180.797 251C180.328 251 180.094 250.766 180.094 250.297V235.297C180.094 234.828 180.328 234.594 180.797 234.594H182.109C182.578 234.594 182.812 234.828 182.812 235.297V236.547H182.875C183.552 235.797 184.281 235.24 185.062 234.875C185.844 234.51 186.818 234.328 187.984 234.328C189.88 234.328 191.24 234.865 192.062 235.938C192.896 237 193.312 238.458 193.312 240.312V250.297C193.312 250.766 193.078 251 192.609 251H191.266C190.797 251 190.562 250.766 190.562 250.297V241.062C190.562 239.021 190.224 237.729 189.547 237.188C188.87 236.635 188.01 236.359 186.969 236.359C185.615 236.359 184.589 236.766 183.891 237.578C183.193 238.38 182.844 239.76 182.844 241.719V250.297C182.844 250.766 182.609 251 182.141 251H180.797ZM196.828 242.797C196.828 240.214 197.474 238.156 198.766 236.625C200.057 235.094 201.906 234.328 204.312 234.328C206.312 234.328 207.969 235.031 209.281 236.438C210.604 237.833 211.266 240.068 211.266 243.141C211.266 243.609 211.052 243.844 210.625 243.844H199.734C199.911 245.854 200.453 247.255 201.359 248.047C202.266 248.828 203.292 249.219 204.438 249.219C205.646 249.219 206.573 249.016 207.219 248.609C207.865 248.203 208.339 247.802 208.641 247.406C208.974 246.969 209.297 246.885 209.609 247.156L210.531 247.953C210.771 248.161 210.771 248.448 210.531 248.812C210.333 249.115 209.766 249.599 208.828 250.266C207.901 250.932 206.438 251.266 204.438 251.266C201.833 251.266 199.911 250.5 198.672 248.969C197.443 247.438 196.828 245.38 196.828 242.797ZM199.672 241.812H208.5C208.458 240.354 208.083 239.078 207.375 237.984C206.667 236.88 205.625 236.328 204.25 236.328C203.042 236.328 202.016 236.734 201.172 237.547C200.328 238.349 199.828 239.771 199.672 241.812Z" fill="black"/>
</g>
<defs>
<clipPath id="clip0_1_18">
<rect width="274" height="316" fill="white" transform="translate(0 -15)"/>
</clipPath>
</defs>
</svg>
